<svg id="Layer_1" data-name="Layer 1" xmlns="http://www.w3.org/2000/svg" viewBox="0 0 512.26 201.25"><defs><style>.cls-1{fill:#29ade3;}.cls-2{fill:#a7cf44;}.cls-3,.cls-5{fill:#27ade3;}.cls-4{fill:none;stroke:#27ade3;stroke-miterlimit:10;}.cls-5{font-size:8.33px;font-family:CarosBold, Caros;}</style></defs><path class="cls-1" d="M422.66,129.44l-4.7-3q-7.5-4.8-15-9.63a1,1,0,0,0-1.35,0l-26,18a1,1,0,0,1-1.28,0c-.88-.53-1.79-1-2.7-1.47a.9.9,0,0,1-.6-1c.12-3.15.21-6.31.29-9.46,0-.51.21-.61.67-.6,1.19,0,2.39.06,3.58,0,.59,0,.79.17.77.78,0,1.61,0,3.23,0,5,1.61-1.1,3.17-2.17,4.72-3.25q10.31-7.12,20.6-14.28a.86.86,0,0,1,1.12,0q14.63,9.4,29.29,18.77a1,1,0,0,1,.52,1.43c-.34,1-.64,2-.88,3-.13.56-.38.71-.93.71q-7,0-14,.14c-3.69,0-7.39.11-11.09.12-.66,0-.86.18-.86.86,0,4.43,0,8.87,0,13.3,0,.73-.22.92-.92.89-1.13-.06-2.27,0-3.41,0-.57,0-.8-.15-.79-.77.07-5.43.11-10.86.15-16.29a1.07,1.07,0,0,1,.39-.89l.06-.06a5.14,5.14,0,0,1,4.9-2.14c3.57.17,7.16,0,10.75,0,2.21,0,4.43,0,6.64,0Z"/><path class="cls-2" d="M460.6,76.75a1.2,1.2,0,0,0-.79-.7,31.93,31.93,0,0,0-7.74-1.55,27.3,27.3,0,0,0-16.26,4.09c-.56.34-.75.26-1.05-.3a32,32,0,0,0-7.59-9.12c-2.26-1.92-3.43-1.23-6.35-.54C418,74.1,415.64,79.74,415,86q-1.32,12.84,9.1,20.49c.47.33.64.21.91-.2.77-1.15,1.59-2.28,2.39-3.42.09-.57-.35-.79-.71-1.07A18.14,18.14,0,0,1,423,98.08a15.89,15.89,0,0,1-2.84-11,37.55,37.55,0,0,1,3.72-12.78c.25-.55.54-.58.95-.18.84.81,1.64,1.65,2.4,2.54a22.87,22.87,0,0,1,5.67,15.24,35.45,35.45,0,0,1-.75,7.42,20.36,20.36,0,0,0-.55-2.14,61.33,61.33,0,0,0-3.23-8.89c-.23-.52-.5-.94-1.15-.62-1.12.56-2.29,1-3.4,1.6a.9.9,0,0,0-.45,1.34c.19.41.37.83.55,1.25a87.16,87.16,0,0,1,3.53,10.94.72.72,0,0,1,.16.28c.3,1.76.62,3.52.86,5.3.18,1.29.26,2.61.4,4.08l-1-.67q-12-8.43-24-16.86a1,1,0,0,0-1.39,0c-5.44,3.58-10.9,7.12-16.35,10.67-4.74,3.08-9.47,6.19-14.22,9.25-.55.35-.6.58-.23,1.09a28.3,28.3,0,0,1,1.81,2.79c.39.7.71.69,1.36.27q13.69-9,27.41-17.89a1.19,1.19,0,0,1,1.61,0c8.52,6,17.07,12,25.6,18a1.12,1.12,0,0,0,1.43.07c.88-.52,1.79-1,2.71-1.43a.79.79,0,0,0,.52-.85c-.09-2.93-.22-5.85-.6-8.76-.25-1.87-.54-3.74-.82-5.67l3.26.93c.28.08.6.22.66-.21s.46-.54.87-.55a20.77,20.77,0,0,0,10.82-3.44A29.87,29.87,0,0,0,457.55,89a70.94,70.94,0,0,0,3.76-7.81V78.08A3.88,3.88,0,0,1,460.6,76.75ZM456,80.69c-2.13,5-4.64,9.63-8.87,13.16a16.25,16.25,0,0,1-8.31,3.65c-.94.13-.95.09-.83-.87a23.51,23.51,0,0,0,.27-3.65,1,1,0,0,1,.57-1,41.48,41.48,0,0,1,10.84-5.25c.58-.16.63-.41.49-.9-.28-1-.53-2-.79-3s-.3-1.16-1.41-.83a42.26,42.26,0,0,0-8.85,3.95l-1.3.74c-.23-.9-.43-1.75-.67-2.58-.08-.31.11-.41.3-.53A23.72,23.72,0,0,1,448,79.61a23.26,23.26,0,0,1,7.62.51C455.91,80.19,456.2,80.22,456,80.69Z"/><path class="cls-3" d="M272,144.92h-6.83V92.85H272v9a21.44,21.44,0,0,1,18.4-10.15c11.86,0,20.5,8.49,20.5,20.8v32.47H304V112.86c0-8.8-6-15.08-15-15.08a17.29,17.29,0,0,0-17,17.09Z"/><path class="cls-3" d="M338.92,91.65a24.11,24.11,0,0,1,20.51,11V71.54h6.83v73.38h-6.83v-9.75a24.17,24.17,0,0,1-20.51,11c-15.13,0-25.53-12.32-25.53-27.24S323.79,91.65,338.92,91.65Zm1,48.35c11.56,0,19.5-9.65,19.5-21.11s-7.79-21.11-19.5-21.11-19.61,9.65-19.61,21.11S328.37,140,339.93,140Z"/><path class="cls-2" d="M124.58,91.38a24.08,24.08,0,0,1,20.51,11V71.28h6.84v73.38h-6.84v-9.75a24.17,24.17,0,0,1-20.51,11c-15.12,0-25.53-12.31-25.53-27.24S109.46,91.38,124.58,91.38Zm1,48.35c11.56,0,19.5-9.65,19.5-21.11s-7.79-21.11-19.5-21.11S106,107.16,106,118.62,114,139.73,125.59,139.73Z"/><path class="cls-2" d="M181.57,145.93a24,24,0,0,1-20.51-11v9.75h-6.83V71.34h6.83v31.11a24,24,0,0,1,20.51-11c15.13,0,25.53,12.36,25.53,27.24S196.7,145.93,181.57,145.93Zm-1-48.35c-11.71,0-19.5,9.65-19.5,21.11s7.95,21.11,19.5,21.11,19.61-9.65,19.61-21.11S192.23,97.58,180.56,97.58Z"/><path class="cls-2" d="M263.51,119.44A27.65,27.65,0,1,1,235.87,92.2,27.13,27.13,0,0,1,263.51,119.44Zm-6.94,0a20.71,20.71,0,1,0-20.7,21.11A20.82,20.82,0,0,0,256.57,119.44Z"/><path class="cls-2" d="M57,124.86l-8.5,20H39.91L72.38,71.1,104,144.83H95.34l-8.3-20ZM72.2,89.39l-12,28.19H84Z"/><circle class="cls-4" cx="444.16" cy="59.16" r="5.8"/><text class="cls-5" transform="translate(441.6 61.62)">R</text></svg>